<mxfile host="app.diagrams.net" modified="2021-01-07T11:37:09.569Z" agent="5.0 (Windows NT 10.0; Win64; x64) AppleWebKit/537.36 (KHTML, like Gecko) Chrome/87.0.4280.88 Safari/537.36" etag="JgwGNcMTc2T0FkUHNlTV" version="14.1.8" type="github">
  <diagram id="Ruv60I6nn8fzczyE1feK" name="Page-1">
    <mxGraphModel dx="1240" dy="643" grid="1" gridSize="10" guides="1" tooltips="1" connect="1" arrows="1" fold="1" page="1" pageScale="1" pageWidth="3300" pageHeight="4681" math="0" shadow="0">
      <root>
        <mxCell id="0" />
        <mxCell id="1" parent="0" />
        <mxCell id="UCMLD3f44jJ2CksCpsVm-1" value="CLIENTI" style="rounded=0;whiteSpace=wrap;html=1;" vertex="1" parent="1">
          <mxGeometry x="1190" y="360" width="120" height="60" as="geometry" />
        </mxCell>
        <mxCell id="UCMLD3f44jJ2CksCpsVm-2" value="LIBRI" style="rounded=0;whiteSpace=wrap;html=1;" vertex="1" parent="1">
          <mxGeometry x="900" y="360" width="120" height="60" as="geometry" />
        </mxCell>
        <mxCell id="UCMLD3f44jJ2CksCpsVm-3" value="ACQUISTO" style="rhombus;whiteSpace=wrap;html=1;" vertex="1" parent="1">
          <mxGeometry x="1070" y="350" width="80" height="80" as="geometry" />
        </mxCell>
        <mxCell id="UCMLD3f44jJ2CksCpsVm-4" value="" style="endArrow=none;html=1;entryX=0;entryY=0.5;entryDx=0;entryDy=0;exitX=1;exitY=0.5;exitDx=0;exitDy=0;" edge="1" parent="1" source="UCMLD3f44jJ2CksCpsVm-2" target="UCMLD3f44jJ2CksCpsVm-3">
          <mxGeometry width="50" height="50" relative="1" as="geometry">
            <mxPoint x="700" y="420" as="sourcePoint" />
            <mxPoint x="750" y="370" as="targetPoint" />
          </mxGeometry>
        </mxCell>
        <mxCell id="UCMLD3f44jJ2CksCpsVm-5" value="" style="endArrow=none;html=1;entryX=0;entryY=0.5;entryDx=0;entryDy=0;exitX=1;exitY=0.5;exitDx=0;exitDy=0;" edge="1" parent="1" source="UCMLD3f44jJ2CksCpsVm-3" target="UCMLD3f44jJ2CksCpsVm-1">
          <mxGeometry width="50" height="50" relative="1" as="geometry">
            <mxPoint x="700" y="420" as="sourcePoint" />
            <mxPoint x="750" y="370" as="targetPoint" />
          </mxGeometry>
        </mxCell>
        <mxCell id="UCMLD3f44jJ2CksCpsVm-6" value="PREZZO" style="ellipse;whiteSpace=wrap;html=1;" vertex="1" parent="1">
          <mxGeometry x="970" y="230" width="100" height="70" as="geometry" />
        </mxCell>
        <mxCell id="UCMLD3f44jJ2CksCpsVm-7" value="NUM COPIE" style="ellipse;whiteSpace=wrap;html=1;" vertex="1" parent="1">
          <mxGeometry x="850" y="230" width="100" height="70" as="geometry" />
        </mxCell>
        <mxCell id="UCMLD3f44jJ2CksCpsVm-8" value="&lt;u&gt;COD CLIENTI&lt;/u&gt;" style="ellipse;whiteSpace=wrap;html=1;" vertex="1" parent="1">
          <mxGeometry x="1200" y="450" width="100" height="70" as="geometry" />
        </mxCell>
        <mxCell id="UCMLD3f44jJ2CksCpsVm-9" value="" style="endArrow=none;html=1;entryX=0.5;entryY=1;entryDx=0;entryDy=0;exitX=0.5;exitY=0;exitDx=0;exitDy=0;" edge="1" parent="1" source="UCMLD3f44jJ2CksCpsVm-8" target="UCMLD3f44jJ2CksCpsVm-1">
          <mxGeometry width="50" height="50" relative="1" as="geometry">
            <mxPoint x="700" y="420" as="sourcePoint" />
            <mxPoint x="750" y="370" as="targetPoint" />
          </mxGeometry>
        </mxCell>
        <mxCell id="UCMLD3f44jJ2CksCpsVm-10" value="&lt;u&gt;ISBN&lt;/u&gt;" style="ellipse;whiteSpace=wrap;html=1;" vertex="1" parent="1">
          <mxGeometry x="910" y="470" width="100" height="70" as="geometry" />
        </mxCell>
        <mxCell id="UCMLD3f44jJ2CksCpsVm-11" value="" style="endArrow=none;html=1;entryX=0.5;entryY=1;entryDx=0;entryDy=0;exitX=0;exitY=0;exitDx=0;exitDy=0;" edge="1" parent="1" source="UCMLD3f44jJ2CksCpsVm-2" target="UCMLD3f44jJ2CksCpsVm-7">
          <mxGeometry width="50" height="50" relative="1" as="geometry">
            <mxPoint x="700" y="420" as="sourcePoint" />
            <mxPoint x="750" y="370" as="targetPoint" />
          </mxGeometry>
        </mxCell>
        <mxCell id="UCMLD3f44jJ2CksCpsVm-12" value="" style="endArrow=none;html=1;entryX=0.5;entryY=1;entryDx=0;entryDy=0;exitX=1;exitY=0;exitDx=0;exitDy=0;" edge="1" parent="1" source="UCMLD3f44jJ2CksCpsVm-2" target="UCMLD3f44jJ2CksCpsVm-6">
          <mxGeometry width="50" height="50" relative="1" as="geometry">
            <mxPoint x="700" y="420" as="sourcePoint" />
            <mxPoint x="750" y="370" as="targetPoint" />
          </mxGeometry>
        </mxCell>
        <mxCell id="UCMLD3f44jJ2CksCpsVm-13" value="" style="endArrow=none;html=1;entryX=0.5;entryY=1;entryDx=0;entryDy=0;exitX=0.5;exitY=0;exitDx=0;exitDy=0;" edge="1" parent="1" source="UCMLD3f44jJ2CksCpsVm-10" target="UCMLD3f44jJ2CksCpsVm-2">
          <mxGeometry width="50" height="50" relative="1" as="geometry">
            <mxPoint x="700" y="420" as="sourcePoint" />
            <mxPoint x="750" y="370" as="targetPoint" />
          </mxGeometry>
        </mxCell>
        <mxCell id="UCMLD3f44jJ2CksCpsVm-14" value="" style="endArrow=none;html=1;exitX=0;exitY=1;exitDx=0;exitDy=0;entryX=1;entryY=0;entryDx=0;entryDy=0;" edge="1" parent="1" source="UCMLD3f44jJ2CksCpsVm-10" target="UCMLD3f44jJ2CksCpsVm-16">
          <mxGeometry width="50" height="50" relative="1" as="geometry">
            <mxPoint x="700" y="420" as="sourcePoint" />
            <mxPoint x="750" y="550" as="targetPoint" />
          </mxGeometry>
        </mxCell>
        <mxCell id="UCMLD3f44jJ2CksCpsVm-15" value="" style="ellipse;whiteSpace=wrap;html=1;" vertex="1" parent="1">
          <mxGeometry x="430" y="120" width="100" height="70" as="geometry" />
        </mxCell>
        <mxCell id="UCMLD3f44jJ2CksCpsVm-16" value="ANNO ED" style="ellipse;whiteSpace=wrap;html=1;" vertex="1" parent="1">
          <mxGeometry x="720" y="590" width="100" height="70" as="geometry" />
        </mxCell>
        <mxCell id="UCMLD3f44jJ2CksCpsVm-17" value="CASA ED" style="ellipse;whiteSpace=wrap;html=1;" vertex="1" parent="1">
          <mxGeometry x="1080" y="590" width="100" height="70" as="geometry" />
        </mxCell>
        <mxCell id="UCMLD3f44jJ2CksCpsVm-18" value="AUTORI" style="ellipse;whiteSpace=wrap;html=1;" vertex="1" parent="1">
          <mxGeometry x="840" y="590" width="100" height="70" as="geometry" />
        </mxCell>
        <mxCell id="UCMLD3f44jJ2CksCpsVm-19" value="TITOLO" style="ellipse;whiteSpace=wrap;html=1;" vertex="1" parent="1">
          <mxGeometry x="960" y="590" width="100" height="70" as="geometry" />
        </mxCell>
        <mxCell id="UCMLD3f44jJ2CksCpsVm-20" value="" style="endArrow=none;html=1;entryX=0.329;entryY=0.998;entryDx=0;entryDy=0;entryPerimeter=0;" edge="1" parent="1" source="UCMLD3f44jJ2CksCpsVm-18" target="UCMLD3f44jJ2CksCpsVm-10">
          <mxGeometry width="50" height="50" relative="1" as="geometry">
            <mxPoint x="700" y="410" as="sourcePoint" />
            <mxPoint x="750" y="360" as="targetPoint" />
          </mxGeometry>
        </mxCell>
        <mxCell id="UCMLD3f44jJ2CksCpsVm-21" value="" style="endArrow=none;html=1;exitX=0.5;exitY=0;exitDx=0;exitDy=0;entryX=0.5;entryY=1;entryDx=0;entryDy=0;" edge="1" parent="1" source="UCMLD3f44jJ2CksCpsVm-19" target="UCMLD3f44jJ2CksCpsVm-10">
          <mxGeometry width="50" height="50" relative="1" as="geometry">
            <mxPoint x="700" y="410" as="sourcePoint" />
            <mxPoint x="750" y="360" as="targetPoint" />
          </mxGeometry>
        </mxCell>
        <mxCell id="UCMLD3f44jJ2CksCpsVm-22" value="" style="endArrow=none;html=1;exitX=0;exitY=0;exitDx=0;exitDy=0;entryX=1;entryY=1;entryDx=0;entryDy=0;" edge="1" parent="1" source="UCMLD3f44jJ2CksCpsVm-17" target="UCMLD3f44jJ2CksCpsVm-10">
          <mxGeometry width="50" height="50" relative="1" as="geometry">
            <mxPoint x="700" y="410" as="sourcePoint" />
            <mxPoint x="750" y="360" as="targetPoint" />
          </mxGeometry>
        </mxCell>
        <mxCell id="UCMLD3f44jJ2CksCpsVm-23" value="ORDINE" style="rounded=0;whiteSpace=wrap;html=1;" vertex="1" parent="1">
          <mxGeometry x="610" y="360" width="120" height="60" as="geometry" />
        </mxCell>
        <mxCell id="UCMLD3f44jJ2CksCpsVm-24" value="FORNITORI" style="rounded=0;whiteSpace=wrap;html=1;" vertex="1" parent="1">
          <mxGeometry x="320" y="360" width="120" height="60" as="geometry" />
        </mxCell>
        <mxCell id="UCMLD3f44jJ2CksCpsVm-25" value="LIBRO" style="rhombus;whiteSpace=wrap;html=1;" vertex="1" parent="1">
          <mxGeometry x="780" y="350" width="80" height="80" as="geometry" />
        </mxCell>
        <mxCell id="UCMLD3f44jJ2CksCpsVm-26" value="ORDINI" style="rhombus;whiteSpace=wrap;html=1;" vertex="1" parent="1">
          <mxGeometry x="490" y="350" width="80" height="80" as="geometry" />
        </mxCell>
        <mxCell id="UCMLD3f44jJ2CksCpsVm-27" value="" style="endArrow=none;html=1;exitX=1;exitY=0.5;exitDx=0;exitDy=0;entryX=0;entryY=0.5;entryDx=0;entryDy=0;" edge="1" parent="1" source="UCMLD3f44jJ2CksCpsVm-24" target="UCMLD3f44jJ2CksCpsVm-26">
          <mxGeometry width="50" height="50" relative="1" as="geometry">
            <mxPoint x="700" y="410" as="sourcePoint" />
            <mxPoint x="750" y="360" as="targetPoint" />
          </mxGeometry>
        </mxCell>
        <mxCell id="UCMLD3f44jJ2CksCpsVm-28" value="" style="endArrow=none;html=1;exitX=1;exitY=0.5;exitDx=0;exitDy=0;entryX=0;entryY=0.5;entryDx=0;entryDy=0;" edge="1" parent="1" source="UCMLD3f44jJ2CksCpsVm-26" target="UCMLD3f44jJ2CksCpsVm-23">
          <mxGeometry width="50" height="50" relative="1" as="geometry">
            <mxPoint x="700" y="410" as="sourcePoint" />
            <mxPoint x="750" y="360" as="targetPoint" />
          </mxGeometry>
        </mxCell>
        <mxCell id="UCMLD3f44jJ2CksCpsVm-29" value="" style="endArrow=none;html=1;exitX=1;exitY=0.5;exitDx=0;exitDy=0;entryX=0;entryY=0.5;entryDx=0;entryDy=0;" edge="1" parent="1" target="UCMLD3f44jJ2CksCpsVm-25">
          <mxGeometry width="50" height="50" relative="1" as="geometry">
            <mxPoint x="780.0000000000002" y="390" as="sourcePoint" />
            <mxPoint x="750" y="360" as="targetPoint" />
          </mxGeometry>
        </mxCell>
        <mxCell id="UCMLD3f44jJ2CksCpsVm-30" value="" style="endArrow=none;html=1;entryX=0;entryY=0.5;entryDx=0;entryDy=0;exitX=1;exitY=0.5;exitDx=0;exitDy=0;" edge="1" parent="1" source="UCMLD3f44jJ2CksCpsVm-25" target="UCMLD3f44jJ2CksCpsVm-2">
          <mxGeometry width="50" height="50" relative="1" as="geometry">
            <mxPoint x="700" y="410" as="sourcePoint" />
            <mxPoint x="750" y="360" as="targetPoint" />
          </mxGeometry>
        </mxCell>
        <mxCell id="UCMLD3f44jJ2CksCpsVm-31" value="" style="ellipse;whiteSpace=wrap;html=1;" vertex="1" parent="1">
          <mxGeometry x="550" y="110" width="100" height="70" as="geometry" />
        </mxCell>
        <mxCell id="UCMLD3f44jJ2CksCpsVm-32" value="INDIRIZZO" style="ellipse;whiteSpace=wrap;html=1;" vertex="1" parent="1">
          <mxGeometry x="460" y="470" width="100" height="70" as="geometry" />
        </mxCell>
        <mxCell id="UCMLD3f44jJ2CksCpsVm-33" value="NOME" style="ellipse;whiteSpace=wrap;html=1;" vertex="1" parent="1">
          <mxGeometry x="350" y="470" width="100" height="70" as="geometry" />
        </mxCell>
        <mxCell id="UCMLD3f44jJ2CksCpsVm-34" value="IVA" style="ellipse;whiteSpace=wrap;html=1;" vertex="1" parent="1">
          <mxGeometry x="240" y="470" width="100" height="70" as="geometry" />
        </mxCell>
        <mxCell id="UCMLD3f44jJ2CksCpsVm-35" value="&lt;u&gt;COD.FISC&lt;/u&gt;" style="ellipse;whiteSpace=wrap;html=1;" vertex="1" parent="1">
          <mxGeometry x="130" y="470" width="100" height="70" as="geometry" />
        </mxCell>
        <mxCell id="UCMLD3f44jJ2CksCpsVm-36" value="" style="endArrow=none;html=1;exitX=0;exitY=1;exitDx=0;exitDy=0;entryX=1;entryY=0;entryDx=0;entryDy=0;" edge="1" parent="1" source="UCMLD3f44jJ2CksCpsVm-24" target="UCMLD3f44jJ2CksCpsVm-35">
          <mxGeometry width="50" height="50" relative="1" as="geometry">
            <mxPoint x="700" y="410" as="sourcePoint" />
            <mxPoint x="750" y="360" as="targetPoint" />
          </mxGeometry>
        </mxCell>
        <mxCell id="UCMLD3f44jJ2CksCpsVm-37" value="" style="endArrow=none;html=1;exitX=0.25;exitY=1;exitDx=0;exitDy=0;entryX=0.5;entryY=0;entryDx=0;entryDy=0;" edge="1" parent="1" source="UCMLD3f44jJ2CksCpsVm-24" target="UCMLD3f44jJ2CksCpsVm-34">
          <mxGeometry width="50" height="50" relative="1" as="geometry">
            <mxPoint x="700" y="410" as="sourcePoint" />
            <mxPoint x="750" y="360" as="targetPoint" />
          </mxGeometry>
        </mxCell>
        <mxCell id="UCMLD3f44jJ2CksCpsVm-38" value="" style="endArrow=none;html=1;exitX=0.679;exitY=1.045;exitDx=0;exitDy=0;exitPerimeter=0;entryX=0.5;entryY=0;entryDx=0;entryDy=0;" edge="1" parent="1" source="UCMLD3f44jJ2CksCpsVm-24" target="UCMLD3f44jJ2CksCpsVm-33">
          <mxGeometry width="50" height="50" relative="1" as="geometry">
            <mxPoint x="380" y="430" as="sourcePoint" />
            <mxPoint x="750" y="360" as="targetPoint" />
          </mxGeometry>
        </mxCell>
        <mxCell id="UCMLD3f44jJ2CksCpsVm-39" value="" style="endArrow=none;html=1;exitX=0.917;exitY=1.021;exitDx=0;exitDy=0;exitPerimeter=0;entryX=0.271;entryY=0.059;entryDx=0;entryDy=0;entryPerimeter=0;" edge="1" parent="1" source="UCMLD3f44jJ2CksCpsVm-24" target="UCMLD3f44jJ2CksCpsVm-32">
          <mxGeometry width="50" height="50" relative="1" as="geometry">
            <mxPoint x="700" y="410" as="sourcePoint" />
            <mxPoint x="750" y="360" as="targetPoint" />
          </mxGeometry>
        </mxCell>
        <mxCell id="UCMLD3f44jJ2CksCpsVm-40" value="NUMERO" style="ellipse;whiteSpace=wrap;html=1;" vertex="1" parent="1">
          <mxGeometry x="740" y="230" width="100" height="70" as="geometry" />
        </mxCell>
        <mxCell id="UCMLD3f44jJ2CksCpsVm-41" value="DATAEM" style="ellipse;whiteSpace=wrap;html=1;" vertex="1" parent="1">
          <mxGeometry x="630" y="230" width="100" height="70" as="geometry" />
        </mxCell>
        <mxCell id="UCMLD3f44jJ2CksCpsVm-42" value="&lt;u&gt;COD ORDINE&lt;/u&gt;" style="ellipse;whiteSpace=wrap;html=1;" vertex="1" parent="1">
          <mxGeometry x="520" y="230" width="100" height="70" as="geometry" />
        </mxCell>
        <mxCell id="UCMLD3f44jJ2CksCpsVm-43" value="" style="endArrow=none;html=1;exitX=0.657;exitY=1.039;exitDx=0;exitDy=0;exitPerimeter=0;entryX=0;entryY=0;entryDx=0;entryDy=0;" edge="1" parent="1" source="UCMLD3f44jJ2CksCpsVm-42" target="UCMLD3f44jJ2CksCpsVm-23">
          <mxGeometry width="50" height="50" relative="1" as="geometry">
            <mxPoint x="700" y="410" as="sourcePoint" />
            <mxPoint x="750" y="360" as="targetPoint" />
          </mxGeometry>
        </mxCell>
        <mxCell id="UCMLD3f44jJ2CksCpsVm-44" value="" style="endArrow=none;html=1;exitX=0.5;exitY=1;exitDx=0;exitDy=0;entryX=0.369;entryY=0.021;entryDx=0;entryDy=0;entryPerimeter=0;" edge="1" parent="1" source="UCMLD3f44jJ2CksCpsVm-41" target="UCMLD3f44jJ2CksCpsVm-23">
          <mxGeometry width="50" height="50" relative="1" as="geometry">
            <mxPoint x="700" y="410" as="sourcePoint" />
            <mxPoint x="750" y="360" as="targetPoint" />
          </mxGeometry>
        </mxCell>
        <mxCell id="UCMLD3f44jJ2CksCpsVm-45" value="" style="endArrow=none;html=1;entryX=0;entryY=1;entryDx=0;entryDy=0;exitX=0.75;exitY=0;exitDx=0;exitDy=0;" edge="1" parent="1" source="UCMLD3f44jJ2CksCpsVm-23" target="UCMLD3f44jJ2CksCpsVm-40">
          <mxGeometry width="50" height="50" relative="1" as="geometry">
            <mxPoint x="700" y="410" as="sourcePoint" />
            <mxPoint x="750" y="360" as="targetPoint" />
          </mxGeometry>
        </mxCell>
        <mxCell id="UCMLD3f44jJ2CksCpsVm-47" value="(1,N)" style="text;html=1;strokeColor=none;fillColor=none;align=center;verticalAlign=middle;whiteSpace=wrap;rounded=0;" vertex="1" parent="1">
          <mxGeometry x="860" y="370" width="40" height="20" as="geometry" />
        </mxCell>
        <mxCell id="UCMLD3f44jJ2CksCpsVm-48" value="" style="endArrow=none;html=1;exitX=1;exitY=0.5;exitDx=0;exitDy=0;entryX=0;entryY=0.5;entryDx=0;entryDy=0;" edge="1" parent="1" source="UCMLD3f44jJ2CksCpsVm-23" target="UCMLD3f44jJ2CksCpsVm-25">
          <mxGeometry width="50" height="50" relative="1" as="geometry">
            <mxPoint x="670.0000000000002" y="390" as="sourcePoint" />
            <mxPoint x="740.0000000000002" y="390" as="targetPoint" />
          </mxGeometry>
        </mxCell>
        <mxCell id="UCMLD3f44jJ2CksCpsVm-49" value="(1,N)" style="text;html=1;strokeColor=none;fillColor=none;align=center;verticalAlign=middle;whiteSpace=wrap;rounded=0;" vertex="1" parent="1">
          <mxGeometry x="570" y="370" width="40" height="20" as="geometry" />
        </mxCell>
        <mxCell id="UCMLD3f44jJ2CksCpsVm-50" value="(1,N)" style="text;html=1;strokeColor=none;fillColor=none;align=center;verticalAlign=middle;whiteSpace=wrap;rounded=0;" vertex="1" parent="1">
          <mxGeometry x="450" y="370" width="40" height="20" as="geometry" />
        </mxCell>
        <mxCell id="UCMLD3f44jJ2CksCpsVm-51" value="(1,N)" style="text;html=1;strokeColor=none;fillColor=none;align=center;verticalAlign=middle;whiteSpace=wrap;rounded=0;" vertex="1" parent="1">
          <mxGeometry x="740" y="370" width="40" height="20" as="geometry" />
        </mxCell>
        <mxCell id="UCMLD3f44jJ2CksCpsVm-52" value="(1,N)" style="text;html=1;strokeColor=none;fillColor=none;align=center;verticalAlign=middle;whiteSpace=wrap;rounded=0;" vertex="1" parent="1">
          <mxGeometry x="1030" y="370" width="40" height="20" as="geometry" />
        </mxCell>
        <mxCell id="UCMLD3f44jJ2CksCpsVm-53" value="(1,N)" style="text;html=1;strokeColor=none;fillColor=none;align=center;verticalAlign=middle;whiteSpace=wrap;rounded=0;" vertex="1" parent="1">
          <mxGeometry x="1150" y="370" width="40" height="20" as="geometry" />
        </mxCell>
      </root>
    </mxGraphModel>
  </diagram>
</mxfile>
